ply
format ascii 1.0           
comment based on paulbourke.net.sample1.ply
element vertex 24
property float x           
property float y           
property float z           
element face 18        
property list uchar int vertex_index 
end_header                 
0 0 0                      
0 0 1
0 1 1
0 1 0
1 0 0
1 0 1
1 1 1
1 1 0
0 3 0                      
0 3 1
0 4 1
0 4 0
1 3 0
1 3 1
1 4 1
1 4 0
0 7 0                      
0 7 1
0 8 1
0 8 0
1 7 0
1 7 1
1 8 1
1 8 0
4 0 1 2 3                  
4 7 6 5 4
4 0 4 5 1
4 1 5 6 2
4 2 6 7 3
4 3 7 4 0
4 8 9 10 11
4 8 14 13 12
4 8 12 13 9
4 9 13 14 10
4 10 14 15 11
4 11 15 12 8
4 16 17 18 19
4 23 22 21 20
4 16 20 21 17
4 17 21 22 18
4 18 22 23 19
4 19 23 20 16

